<svg width="243" height="232" viewBox="0 0 243 232" fill="none" xmlns="http://www.w3.org/2000/svg">
<g clip-path="url(#clip0_2017_140)">
<path d="M242.082 231.878H0.143555V66.0741V0.937622L63.7253 55.3476H179.277L242.082 0.937622V66.0741V231.878Z" fill="white"/>
<path d="M123.795 173.768C130.633 172.883 135.835 168.726 135.835 163.685C135.835 158.027 129.238 153.441 121.113 153.441C112.987 153.441 106.391 158.027 106.391 163.685C106.391 168.7 111.566 172.883 118.431 173.768V188.544H106.793V193.907H135.433V188.544H123.795V173.768Z" fill="black"/>
<path d="M75.3904 143.466C86.587 143.466 95.6637 134.389 95.6637 123.193C95.6637 111.996 86.587 102.919 75.3904 102.919C64.1938 102.919 55.1172 111.996 55.1172 123.193C55.1172 134.389 64.1938 143.466 75.3904 143.466Z" fill="black"/>
<path d="M166.834 143.466C178.031 143.466 187.108 134.389 187.108 123.193C187.108 111.996 178.031 102.919 166.834 102.919C155.638 102.919 146.561 111.996 146.561 123.193C146.561 134.389 155.638 143.466 166.834 143.466Z" fill="black"/>
</g>
<defs>
<clipPath id="clip0_2017_140">
<rect width="241.938" height="230.941" fill="white" transform="translate(0.143555 0.937622)"/>
</clipPath>
</defs>
</svg>
