<svg width="704" height="674" viewBox="0 0 704 674" fill="none" xmlns="http://www.w3.org/2000/svg">
<path d="M272.155 126.554C273.086 126.219 273.752 125.902 274.151 125.603C274.572 125.257 274.793 124.788 274.814 124.196C274.857 123.557 274.697 122.679 274.335 121.562L265.424 93.8477L281.521 88.0615L294.544 124.292L288.748 126.376L277.585 95.321L272.616 97.1071L279.865 119.224C280.952 122.574 281.111 125.185 280.343 127.059C279.575 128.932 277.759 130.384 274.895 131.414L274.015 131.73L272.155 126.554Z" fill="white"/>
<path d="M313.578 110.881C313.63 113.239 313.441 115.201 313.01 116.767C312.607 118.289 311.809 119.563 310.615 120.59C309.456 121.608 307.752 122.375 305.5 122.892C304.821 123.048 304.281 123.153 303.88 123.208L302.674 117.954C302.932 117.933 303.294 117.868 303.758 117.762C305.009 117.475 305.903 117.025 306.44 116.413C306.976 115.801 307.22 114.898 307.172 113.705L307.152 113.371L292.36 86.2941L298.203 84.9531L304.36 97.0267L308.201 105.4L307.589 96.3421L307.316 82.8615L313.481 81.4466L313.578 110.881Z" fill="white"/>
<path d="M347.224 117.189L341.211 117.858L339.495 102.443C338.953 103.204 338.21 103.822 337.266 104.296C336.359 104.766 335.469 105.049 334.594 105.147C332.189 105.414 330.243 104.838 328.757 103.417C327.303 101.955 326.426 99.8761 326.126 97.1794L324.325 80.9993L330.338 80.3301L332.084 96.0183C332.222 97.2573 332.655 98.1683 333.384 98.7512C334.109 99.2977 334.982 99.5142 336.002 99.4006C336.986 99.2911 337.715 98.878 338.188 98.1612C338.658 97.4079 338.822 96.3936 338.68 95.1181L336.952 79.594L342.965 78.9248L347.224 117.189Z" fill="white"/>
<path d="M355.374 79.5614L361.424 79.5772L361.337 112.577L366.562 112.591L366.649 79.5909L372.699 79.6068L372.612 112.607L377.837 112.62L377.924 79.6204L383.974 79.6363L383.873 118.136L355.273 118.061L355.374 79.5614Z" fill="white"/>
<path d="M409.368 99.12L408.497 104.551L400.297 103.236L398.512 114.368L408.83 116.023L407.959 121.454L391.667 118.841L397.763 80.8267L414.055 83.4393L413.184 88.87L402.866 87.2153L401.168 97.805L409.368 99.12Z" fill="white"/>
<path d="M443.137 123.647L439.129 134.772L433.437 132.721L446.487 96.5003L452.178 98.5509L446.493 114.333L459.63 101.235L465.322 103.286L451.588 116.578L452.272 139.507L446.425 137.4L446.09 120.969L443.137 123.647Z" fill="white"/>
<path d="M470.297 116.952C471.66 114.19 473.422 112.401 475.583 111.587C477.743 110.772 480.155 111.022 482.818 112.336C485.481 113.651 487.147 115.413 487.814 117.624C488.481 119.834 488.133 122.32 486.77 125.082L477.91 143.034C476.546 145.796 474.785 147.585 472.624 148.399C470.464 149.214 468.052 148.964 465.389 147.65C462.726 146.335 461.06 144.573 460.393 142.362C459.726 140.152 460.074 137.666 461.437 134.904L470.297 116.952ZM466.692 137.927C465.572 140.196 465.949 141.793 467.823 142.718C469.697 143.643 471.194 142.971 472.314 140.702L481.515 122.059C482.635 119.79 482.258 118.193 480.384 117.268C478.51 116.343 477.013 117.015 475.893 119.284L466.692 137.927Z" fill="white"/>
<path d="M515.199 133.144L512.225 137.771L506.905 134.351L489.061 162.111L483.972 158.84L501.815 131.08L496.495 127.66L499.469 123.033L515.199 133.144Z" fill="white"/>
<path d="M517.297 147.324C519.219 144.917 521.322 143.547 523.606 143.212C525.891 142.878 528.194 143.637 530.515 145.49C532.836 147.343 534.086 149.421 534.266 151.722C534.446 154.024 533.575 156.379 531.653 158.786L519.163 174.431C517.241 176.838 515.138 178.209 512.853 178.543C510.569 178.878 508.266 178.118 505.945 176.265C503.624 174.412 502.374 172.335 502.194 170.033C502.014 167.731 502.885 165.377 504.807 162.97L517.297 147.324ZM509.294 167.045C507.716 169.023 507.743 170.663 509.377 171.967C511.01 173.271 512.616 172.934 514.194 170.957L527.165 154.71C528.744 152.733 528.717 151.092 527.083 149.788C525.45 148.484 523.844 148.821 522.265 150.798L509.294 167.045Z" fill="white"/>
<path d="M552.011 166.869C554.225 169.063 555.323 171.184 555.307 173.232C555.316 175.255 554.262 177.333 552.146 179.469L551.178 180.446C549.784 181.852 548.401 182.779 547.029 183.226C545.683 183.699 544.322 183.692 542.946 183.205C544.255 186.155 543.387 189.167 540.342 192.24L538.135 194.467C536.045 196.576 533.885 197.636 531.655 197.646C529.477 197.656 527.32 196.603 525.185 194.487L518.426 187.789L545.526 160.442L552.011 166.869ZM538.79 175.835L540.47 177.5C541.329 178.351 542.187 178.762 543.042 178.733C543.924 178.729 544.881 178.206 545.913 177.164L547.423 175.64C548.404 174.651 548.931 173.754 549.005 172.95C549.105 172.171 548.778 171.408 548.022 170.659L545.952 168.608L538.79 175.835ZM526.595 188.141L529.056 190.58C529.811 191.328 530.565 191.688 531.317 191.659C532.094 191.603 532.973 191.081 533.954 190.091L536.316 187.708C537.554 186.458 538.185 185.379 538.207 184.471C538.28 183.564 537.822 182.619 536.833 181.639L534.918 179.742L526.595 188.141Z" fill="white"/>
<path d="M588.147 215.383L592.861 222.355L560.967 243.919L557.763 239.181L580.635 223.716L555.422 235.718L552.218 230.98L572.245 211.994L549.692 227.243L546.734 222.869L578.628 201.305L583.341 208.276L563.192 227.277L588.147 215.383Z" fill="white"/>
<path d="M588.851 238.248C591.62 236.9 594.108 236.566 596.315 237.245C598.521 237.924 600.274 239.599 601.574 242.27C602.874 244.94 603.111 247.353 602.285 249.509C601.458 251.665 599.66 253.417 596.891 254.765L578.89 263.527C576.121 264.876 573.633 265.21 571.427 264.53C569.22 263.851 567.467 262.176 566.167 259.506C564.867 256.835 564.63 254.422 565.456 252.266C566.283 250.111 568.081 248.359 570.85 247.01L588.851 238.248ZM573.152 252.619C570.877 253.726 570.197 255.219 571.112 257.098C572.027 258.978 573.621 259.364 575.896 258.256L594.589 249.157C596.864 248.049 597.544 246.556 596.629 244.677C595.714 242.798 594.12 242.412 591.845 243.519L573.152 252.619Z" fill="white"/>
<path d="M609.032 263.443L614.312 278.494L609.122 280.315L605.845 270.973L574.705 281.896L572.703 276.187L609.032 263.443Z" fill="white"/>
<path d="M592.054 310.861C589.697 310.931 587.733 310.757 586.164 310.338C584.639 309.947 583.358 309.158 582.323 307.972C581.296 306.822 580.515 305.123 579.981 302.876C579.82 302.198 579.711 301.658 579.653 301.257L584.897 300.011C584.921 300.27 584.988 300.631 585.098 301.094C585.395 302.343 585.851 303.233 586.467 303.765C587.084 304.297 587.988 304.534 589.181 304.477L589.514 304.454L616.477 289.455L617.863 295.287L605.837 301.537L597.494 305.441L606.546 304.76L620.025 304.384L621.487 310.537L592.054 310.861Z" fill="white"/>
<path d="M623.996 338.515L618.534 339.165L617.787 332.884L585.018 336.784L584.303 330.777L617.072 326.877L616.324 320.596L621.786 319.946L623.996 338.515Z" fill="white"/>
<path d="M622.803 371.23L621.682 388.133L616.194 387.769L616.915 376.903L607.092 376.251L606.858 379.763C606.659 382.763 605.686 384.977 603.937 386.404C602.226 387.834 599.833 388.447 596.76 388.243L592.644 387.97C589.571 387.766 587.262 386.841 585.717 385.195C584.21 383.552 583.555 381.23 583.754 378.23L584.388 368.681L622.803 371.23ZM589.242 378.594C589.174 379.619 589.398 380.405 589.912 380.954C590.427 381.503 591.343 381.821 592.66 381.908L597.545 382.232C598.862 382.319 599.812 382.125 600.394 381.649C600.977 381.174 601.303 380.424 601.371 379.399L601.604 375.887L589.475 375.082L589.242 378.594Z" fill="white"/>
<path d="M618.708 401.857L617.618 407.808L603.389 405.203L602.874 408.016C602.332 410.973 601.133 413.046 599.275 414.234C597.417 415.422 594.956 415.736 591.89 415.174L586.967 414.273C583.901 413.711 581.71 412.546 580.394 410.776C579.078 409.007 578.691 406.643 579.232 403.686L580.837 394.922L618.708 401.857ZM614.853 422.902L613.763 428.853L575.893 421.918L576.983 415.967L614.853 422.902ZM584.642 404.677C584.464 405.651 584.602 406.421 585.058 406.989C585.506 407.593 586.38 408.014 587.678 408.252L593.358 409.292C594.657 409.53 595.623 409.446 596.256 409.04C596.883 408.671 597.286 407.999 597.464 407.025L597.979 404.212L585.158 401.864L584.642 404.677Z" fill="white"/>
<path d="M602.403 457.545L597.202 455.757L599.259 449.775L568.053 439.044L570.02 433.323L601.227 444.054L603.283 438.073L608.485 439.862L602.403 457.545Z" fill="white"/>
<path d="M597.291 467.194L594.753 472.686L581.623 466.616L580.423 469.212C579.161 471.941 577.483 473.649 575.387 474.337C573.292 475.024 570.83 474.714 568.001 473.406L563.458 471.306C560.629 469.998 558.798 468.323 557.964 466.282C557.131 464.24 557.345 461.855 558.606 459.126L562.345 451.038L597.291 467.194ZM563.599 461.434C563.183 462.332 563.125 463.113 563.424 463.777C563.708 464.474 564.449 465.099 565.647 465.653L570.889 468.076C572.087 468.63 573.044 468.79 573.758 468.555C574.458 468.353 575.015 467.802 575.43 466.904L576.631 464.308L564.799 458.838L563.599 461.434Z" fill="white"/>
<path d="M561.083 525.119L556.614 521.913L560.302 516.774L533.49 497.535L537.017 492.62L563.829 511.859L567.516 506.72L571.985 509.926L561.083 525.119Z" fill="white"/>
<path d="M546.809 526.421C549.114 528.464 550.374 530.635 550.591 532.934C550.807 535.232 549.93 537.493 547.96 539.715C545.989 541.938 543.85 543.079 541.542 543.14C539.234 543.201 536.928 542.21 534.623 540.167L519.642 526.886C517.337 524.843 516.077 522.672 515.861 520.374C515.645 518.075 516.522 515.814 518.492 513.592C520.462 511.369 522.601 510.228 524.909 510.167C527.217 510.106 529.523 511.097 531.828 513.14L546.809 526.421ZM527.527 517.412C525.634 515.734 523.994 515.676 522.607 517.24C521.221 518.804 521.474 520.425 523.367 522.104L538.924 535.895C540.818 537.573 542.457 537.631 543.844 536.067C545.23 534.503 544.977 532.882 543.084 531.203L527.527 517.412Z" fill="white"/>
<path d="M511.236 528.31C510.501 528.973 510.005 529.519 509.749 529.947C509.491 530.427 509.465 530.945 509.67 531.501C509.872 532.108 510.353 532.86 511.111 533.756L529.866 556.021L517.165 567.479L491.376 538.894L495.95 534.767L518.055 559.269L521.975 555.733L506.881 538.016C504.605 535.329 503.467 532.973 503.467 530.948C503.468 528.923 504.597 526.891 506.857 524.853L507.551 524.226L511.236 528.31Z" fill="white"/>
<path d="M505.896 574.473L500.936 577.937L492.653 566.079L490.308 567.717C487.844 569.438 485.533 570.068 483.377 569.607C481.22 569.145 479.25 567.636 477.465 565.081L474.599 560.978C472.814 558.423 472.076 556.054 472.385 553.87C472.693 551.687 474.08 549.734 476.545 548.013L483.85 542.91L505.896 574.473ZM479.695 552.522C478.883 553.088 478.439 553.734 478.363 554.458C478.258 555.203 478.583 556.116 479.338 557.198L482.645 561.933C483.401 563.015 484.147 563.634 484.883 563.791C485.589 563.969 486.347 563.775 487.159 563.208L489.504 561.57L482.039 550.884L479.695 552.522Z" fill="white"/>
<path d="M462.332 569.434L456.672 559.051L461.984 556.155L480.411 589.959L475.099 592.855L467.07 578.126L468.146 596.645L462.834 599.541L462.009 580.447L444.406 565.738L449.863 562.763L462.375 573.419L462.332 569.434Z" fill="white"/>
<path d="M449.836 594.013C451 596.865 451.171 599.37 450.349 601.527C449.526 603.684 447.74 605.324 444.991 606.447C442.241 607.569 439.817 607.647 437.72 606.682C435.623 605.716 433.993 603.807 432.829 600.956L425.263 582.42C424.099 579.569 423.928 577.064 424.751 574.907C425.573 572.749 427.359 571.109 430.109 569.987C432.858 568.865 435.282 568.786 437.379 569.752C439.476 570.718 441.107 572.626 442.271 575.478L449.836 594.013ZM436.524 577.408C435.568 575.066 434.122 574.289 432.187 575.079C430.252 575.869 429.763 577.435 430.719 579.777L438.575 599.026C439.532 601.368 440.977 602.144 442.912 601.355C444.847 600.565 445.337 598.999 444.381 596.656L436.524 577.408Z" fill="white"/>
<path d="M391.328 592.462L389.038 580.861L394.973 579.689L402.429 617.46L396.494 618.632L393.245 602.174L388.724 620.166L382.788 621.337L387.721 602.873L375.332 583.566L381.429 582.363L390.175 596.277L391.328 592.462Z" fill="white"/>
<path d="M368.84 583.077L371.933 621.453L365.903 621.939L364.577 605.492L357.724 606.045L359.05 622.492L352.91 622.987L349.816 584.611L355.956 584.116L357.282 600.563L364.135 600.01L362.809 583.564L368.84 583.077Z" fill="white"/>
<path d="M340.975 583.397L339.431 621.866L334.046 621.65L335.023 597.304L332.485 605.679L326.901 621.363L320.252 621.096L321.796 582.627L327.236 582.846L326.149 609.939L329.001 600.586L334.765 583.148L340.975 583.397Z" fill="white"/>
<path d="M307.466 618.424L291.717 615.899L292.588 610.468L302.363 612.036L307.588 579.452L313.562 580.41L307.466 618.424Z" fill="white"/>
<path d="M289.457 574.99L279.353 612.141L274.152 610.726L280.546 587.215L276.201 594.811L267.253 608.85L260.831 607.103L270.935 569.953L276.189 571.382L269.073 597.546L273.944 589.067L283.46 573.359L289.457 574.99Z" fill="white"/>
<path d="M261.672 571.565L256.263 569.391L258.211 564.543L262.937 559.863L265.234 560.786L261.703 565.294L263.846 566.156L261.672 571.565Z" fill="white"/>
<path d="M221.238 557.533L227.228 547.337L232.444 550.402L212.941 583.597L207.725 580.532L216.223 566.068L200.896 576.52L195.68 573.455L211.628 562.922L215.183 540.26L220.542 543.409L217.842 559.62L221.238 557.533Z" fill="white"/>
<path d="M193.511 559.326C191.661 561.788 189.599 563.22 187.326 563.621C185.052 564.022 182.728 563.331 180.353 561.547C177.979 559.763 176.668 557.723 176.421 555.428C176.174 553.132 176.975 550.753 178.825 548.291L190.851 532.285C192.701 529.823 194.763 528.391 197.037 527.99C199.311 527.588 201.635 528.28 204.009 530.064C206.384 531.848 207.695 533.888 207.942 536.183C208.189 538.479 207.388 540.858 205.538 543.32L193.511 559.326ZM200.932 539.378C202.452 537.355 202.376 535.716 200.705 534.461C199.034 533.205 197.439 533.589 195.919 535.612L183.431 552.233C181.911 554.255 181.986 555.894 183.657 557.15C185.328 558.405 186.924 558.022 188.443 555.999L200.932 539.378Z" fill="white"/>
<path d="M152.471 535.377L156.24 531.371L160.846 535.705L183.458 511.67L187.865 515.816L165.253 539.851L169.859 544.185L166.091 548.191L152.471 535.377Z" fill="white"/>
<path d="M152.66 520.685C150.327 522.696 148.007 523.656 145.7 523.563C143.393 523.47 141.27 522.299 139.331 520.05C137.391 517.801 136.545 515.528 136.793 513.233C137.041 510.937 138.331 508.784 140.664 506.772L155.826 493.699C158.159 491.688 160.479 490.729 162.785 490.821C165.092 490.914 167.216 492.085 169.155 494.334C171.095 496.584 171.94 498.856 171.693 501.152C171.445 503.447 170.155 505.6 167.822 507.612L152.66 520.685ZM164.163 502.778C166.079 501.126 166.354 499.509 164.99 497.926C163.625 496.343 161.984 496.378 160.068 498.03L144.323 511.606C142.407 513.258 142.131 514.875 143.496 516.458C144.861 518.041 146.501 518.007 148.417 516.354L164.163 502.778Z" fill="white"/>
<path d="M122.761 495.92C121.058 493.442 120.445 491.126 120.923 488.974C121.402 486.821 122.925 484.862 125.493 483.097L129.618 480.262C132.187 478.497 134.562 477.776 136.743 478.102C138.924 478.427 140.866 479.828 142.569 482.306L144.189 484.663L156.11 476.47L159.536 481.456L127.807 503.263L122.761 495.92ZM139.656 487.778L138.036 485.421C137.475 484.605 136.833 484.157 136.11 484.076C135.366 483.964 134.45 484.282 133.362 485.03L128.603 488.301C127.515 489.048 126.89 489.789 126.727 490.524C126.544 491.228 126.733 491.989 127.293 492.804L128.913 495.161L139.656 487.778Z" fill="white"/>
<path d="M112.968 478.644L110.093 473.321L122.819 466.447L121.46 463.93C120.031 461.285 119.669 458.918 120.374 456.828C121.079 454.739 122.803 452.953 125.545 451.472L129.949 449.093C132.691 447.612 135.129 447.149 137.263 447.705C139.397 448.261 141.178 449.862 142.607 452.507L146.842 460.347L112.968 478.644ZM102.8 459.82L99.9242 454.497L133.798 436.199L136.673 441.522L102.8 459.82ZM137.768 455.121C137.298 454.25 136.707 453.736 135.997 453.578C135.269 453.387 134.324 453.606 133.163 454.233L128.082 456.978C126.92 457.605 126.22 458.276 125.98 458.989C125.722 459.669 125.829 460.445 126.299 461.316L127.659 463.833L139.127 457.638L137.768 455.121Z" fill="white"/>
<path d="M106.67 421.324L111.853 419.484L114.632 427.31L125.257 423.537L121.76 413.69L126.943 411.849L132.465 427.398L96.1846 440.281L90.663 424.733L95.8459 422.892L99.3429 432.74L109.45 429.151L106.67 421.324Z" fill="white"/>
<path d="M121.813 383.847L83.761 389.707L82.9407 384.38L107.022 380.671L98.3157 379.786L81.8525 377.313L80.8397 370.735L118.891 364.876L119.72 370.258L92.9207 374.384L102.647 375.391L120.867 377.705L121.813 383.847Z" fill="white"/>
<path d="M90.0975 346.404C88.4485 346.462 87.3221 346.777 86.7185 347.348C86.0768 347.884 85.774 348.665 85.81 349.691C85.8845 351.817 87.186 352.835 89.7144 352.746L92.8475 352.637L93.0421 358.188L90.1839 358.288C87.0691 358.398 84.6792 357.729 83.0142 356.283C81.3126 354.839 80.4104 352.651 80.3076 349.719C80.2048 346.788 80.9693 344.523 82.601 342.925C84.196 341.328 86.5509 340.475 89.6656 340.365L90.655 340.331C92.7438 340.258 94.4599 340.546 95.8035 341.196C97.1105 341.847 98.0821 342.877 98.7185 344.286C99.8655 341.42 102.509 339.915 106.65 339.77L109.673 339.664C112.788 339.555 115.215 340.24 116.955 341.72C118.658 343.202 119.561 345.408 119.663 348.339C119.766 351.271 119.02 353.535 117.425 355.132C115.793 356.73 113.42 357.584 110.305 357.693L106.073 357.841L105.873 352.125L110.49 351.963C113.018 351.874 114.246 350.786 114.173 348.697C114.137 347.671 113.798 346.912 113.157 346.421C112.478 345.895 111.333 345.66 109.72 345.716L106.697 345.822C104.938 345.884 103.703 346.239 102.992 346.888C102.245 347.538 101.895 348.559 101.944 349.951L101.996 351.435L96.4994 351.628L96.4358 349.814C96.3934 348.605 96.0505 347.718 95.407 347.154C94.7622 346.552 93.7069 346.278 92.2411 346.329L90.0975 346.404Z" fill="white"/>
<path d="M121.468 315.068L120.516 327.958L125.672 328.339L125.238 334.208L114.707 333.43L114.881 331.071C114.297 330.514 113.628 330.115 112.874 329.875C112.122 329.599 111.164 329.381 109.999 329.222L82.0717 325.781L83.3193 308.887L116.339 311.325L116.534 308.692L127.065 309.47L126.624 315.449L121.468 315.068ZM110.327 323.29C111.711 323.466 112.776 323.728 113.523 324.077C114.272 324.39 114.865 324.82 115.302 325.367L115.886 317.468L88.3507 315.435L87.974 320.536L110.327 323.29Z" fill="white"/>
<path d="M127.842 287.18L120.793 286.742L119.241 294.003L125.854 296.485L124.693 301.917L88.3304 287.846L90.1812 279.187L129.118 281.21L127.842 287.18ZM115.511 286.457L95.862 285.238L114.293 292.158L115.511 286.457Z" fill="white"/>
<path d="M118.498 264.02L134.14 269.272L132.214 275.007L95.7162 262.752L97.642 257.017L113.284 262.269L114.719 257.994L107.837 255.683C104.917 254.702 102.909 253.196 101.812 251.165C100.714 249.133 100.639 246.71 101.584 243.894C102.529 241.079 104.052 239.192 106.153 238.234C108.254 237.277 110.764 237.288 113.684 238.268L132.663 244.641C135.583 245.621 137.591 247.127 138.688 249.158C139.785 251.19 139.861 253.613 138.916 256.429C137.97 259.245 136.447 261.131 134.347 262.089C132.246 263.047 129.735 263.035 126.816 262.055L119.933 259.744L118.498 264.02ZM129.106 256.442C131.505 257.248 133.037 256.66 133.702 254.678C134.367 252.697 133.501 251.304 131.102 250.498L111.393 243.881C108.995 243.076 107.463 243.664 106.798 245.645C106.133 247.626 106.999 249.02 109.398 249.825L129.106 256.442Z" fill="white"/>
<path d="M119.8 209.867L124.687 212.391L121.785 218.011L151.107 233.151L148.331 238.527L119.009 223.386L116.108 229.006L111.221 226.483L119.8 209.867Z" fill="white"/>
<path d="M163.854 194.67L173.203 201.912L169.498 206.695L139.061 183.119L142.766 178.336L156.028 188.608L147.616 172.074L151.321 167.291L159.734 184.452L181.758 190.867L177.952 195.781L162.217 191.037L163.854 194.67Z" fill="white"/>
<path d="M165.859 166.659C163.656 164.507 162.501 162.278 162.396 159.971C162.29 157.665 163.275 155.449 165.35 153.324C167.425 151.199 169.616 150.162 171.925 150.212C174.233 150.262 176.489 151.363 178.693 153.515L193.017 167.501C195.221 169.652 196.375 171.881 196.481 174.188C196.586 176.494 195.601 178.71 193.527 180.835C191.452 182.96 189.26 183.998 186.952 183.947C184.644 183.897 182.388 182.796 180.184 180.645L165.859 166.659ZM184.686 176.585C186.496 178.352 188.131 178.488 189.591 176.993C191.051 175.497 190.876 173.866 189.066 172.098L174.191 157.574C172.38 155.807 170.745 155.671 169.285 157.166C167.825 158.662 168 160.293 169.81 162.061L184.686 176.585Z" fill="white"/>
<path d="M195.257 128.784L198.738 133.042L193.841 137.045L214.726 162.595L210.041 166.424L189.156 140.874L184.259 144.877L180.778 140.618L195.257 128.784Z" fill="white"/>
<path d="M204.369 123.411L209.419 120.08L217.384 132.154L219.771 130.579C222.281 128.924 224.608 128.356 226.751 128.874C228.894 129.393 230.824 130.954 232.54 133.555L235.296 137.733C237.012 140.335 237.687 142.723 237.32 144.897C236.954 147.072 235.516 148.987 233.006 150.642L225.568 155.549L204.369 123.411ZM222.228 111.63L227.278 108.299L248.478 140.436L243.428 143.768L222.228 111.63ZM229.977 146.051C230.804 145.506 231.265 144.873 231.36 144.151C231.485 143.41 231.185 142.488 230.458 141.386L227.278 136.565C226.551 135.463 225.822 134.824 225.091 134.648C224.39 134.451 223.626 134.625 222.8 135.171L220.413 136.745L227.59 147.626L229.977 146.051Z" fill="white"/>
</svg>
