<svg width="614" height="269" viewBox="0 0 614 269" fill="none" xmlns="http://www.w3.org/2000/svg">
<path d="M34 253V269H392V253L34 253Z" fill="black"/>
<path d="M0 220L0 237L392 237V220L0 220Z" fill="black"/>
<path d="M0 188L0 204L392 204V188L0 188Z" fill="black"/>
<path d="M34 155V172L392 172V155L34 155Z" fill="black"/>
<path d="M34 98V115L392 115V98L34 98Z" fill="black"/>
<path d="M0 66L0 82L392 82V66L0 66Z" fill="black"/>
<path d="M0 33L0 50L392 50V33L0 33Z" fill="black"/>
<path d="M34 0V17L392 17V0L34 0Z" fill="black"/>
<path d="M498 253V269H856V253L498 253Z" fill="black"/>
<path d="M464 220V237L856 237V220L464 220Z" fill="black"/>
<path d="M464 188V204L856 204V188L464 188Z" fill="black"/>
<path d="M498 155V172L856 172V155L498 155Z" fill="black"/>
<path d="M498 98V115L856 115V98L498 98Z" fill="black"/>
<path d="M464 66V82L856 82V66L464 66Z" fill="black"/>
<path d="M464 33V50L856 50V33L464 33Z" fill="black"/>
<path d="M498 0V17L856 17V0L498 0Z" fill="black"/>
</svg>
